REM DIRINDEX 1\2\4,1\2\5,1\2\6,1\3\7,1\3\8,1\3\9,1\3\10
REM DIRNAME folder01,folder02,folder03,folder04,folder05,folder06,folder07,folder08,folder09,folder10
TITLE ""
FILE "b_54.mp3" MP3
  TRACK 01 AUDIO
    TITLE "0:"
    INDEX 01 00:00:00
  TRACK 02 AUDIO
    TITLE "10:cjc058_4597"
    INDEX 01 00:00:13
  TRACK 03 AUDIO
    TITLE "0:"
    INDEX 01 00:02:36
  TRACK 04 AUDIO
    TITLE "7:cjc058_4598"
    INDEX 01 00:03:02
  TRACK 05 AUDIO
    TITLE "0:"
    INDEX 01 00:04:54
  TRACK 06 AUDIO
    TITLE "8:cjc058_4599"
    INDEX 01 00:05:09
  TRACK 07 AUDIO
    TITLE "0:"
    INDEX 01 00:08:21
  TRACK 08 AUDIO
    TITLE "9:cjc058_4600"
    INDEX 01 00:08:62
  TRACK 09 AUDIO
    TITLE "0:"
    INDEX 01 00:13:30
  TRACK 10 AUDIO
    TITLE "7:cjc058_4601"
    INDEX 01 00:14:35
  TRACK 11 AUDIO
    TITLE "0:"
    INDEX 01 00:15:58
  TRACK 12 AUDIO
    TITLE "8:cjc058_4602"
    INDEX 01 00:16:12
  TRACK 13 AUDIO
    TITLE "0:"
    INDEX 01 00:19:22
  TRACK 14 AUDIO
    TITLE "9:cjc058_4603"
    INDEX 01 00:19:63
  TRACK 15 AUDIO
    TITLE "0:"
    INDEX 01 00:24:29
  TRACK 16 AUDIO
    TITLE "7:cjc058_4604"
    INDEX 01 00:25:31
  TRACK 17 AUDIO
    TITLE "0:"
    INDEX 01 00:26:54
  TRACK 18 AUDIO
    TITLE "8:cjc058_4605"
    INDEX 01 00:27:10
  TRACK 19 AUDIO
    TITLE "0:"
    INDEX 01 00:29:60
  TRACK 20 AUDIO
    TITLE "9:cjc058_4606"
    INDEX 01 00:30:24
  TRACK 21 AUDIO
    TITLE "0:"
    INDEX 01 00:32:74
  TRACK 22 AUDIO
    TITLE "7:cjc058_4607"
    INDEX 01 00:34:04
  TRACK 23 AUDIO
    TITLE "0:"
    INDEX 01 00:35:33
  TRACK 24 AUDIO
    TITLE "8:cjc058_4608"
    INDEX 01 00:35:61
  TRACK 25 AUDIO
    TITLE "0:"
    INDEX 01 00:38:31
  TRACK 26 AUDIO
    TITLE "9:cjc058_4609"
    INDEX 01 00:38:71
  TRACK 27 AUDIO
    TITLE "0:"
    INDEX 01 00:44:36
  TRACK 28 AUDIO
    TITLE "7:cjc058_4610"
    INDEX 01 00:45:39
  TRACK 29 AUDIO
    TITLE "0:"
    INDEX 01 00:47:23
  TRACK 30 AUDIO
    TITLE "8:cjc058_4611"
    INDEX 01 00:47:54
  TRACK 31 AUDIO
    TITLE "0:"
    INDEX 01 00:49:10
  TRACK 32 AUDIO
    TITLE "9:cjc058_4612"
    INDEX 01 00:49:53
  TRACK 33 AUDIO
    TITLE "0:"
    INDEX 01 00:53:09
  TRACK 34 AUDIO
    TITLE "7:cjc058_4613"
    INDEX 01 00:54:15
  TRACK 35 AUDIO
    TITLE "0:"
    INDEX 01 00:55:73
  TRACK 36 AUDIO
    TITLE "8:cjc058_4614"
    INDEX 01 00:56:24
  TRACK 37 AUDIO
    TITLE "0:"
    INDEX 01 00:59:00
  TRACK 38 AUDIO
    TITLE "9:cjc058_4615"
    INDEX 01 00:59:39
  TRACK 39 AUDIO
    TITLE "0:"
    INDEX 01 01:03:10
  TRACK 40 AUDIO
    TITLE "7:cjc058_4616"
    INDEX 01 01:04:17
  TRACK 41 AUDIO
    TITLE "0:"
    INDEX 01 01:05:71
  TRACK 42 AUDIO
    TITLE "8:cjc058_4617"
    INDEX 01 01:06:26
  TRACK 43 AUDIO
    TITLE "0:"
    INDEX 01 01:10:45
  TRACK 44 AUDIO
    TITLE "9:cjc058_4618"
    INDEX 01 01:11:09
  TRACK 45 AUDIO
    TITLE "0:"
    INDEX 01 01:16:18
  TRACK 46 AUDIO
    TITLE "7:cjc058_4619"
    INDEX 01 01:17:24
  TRACK 47 AUDIO
    TITLE "0:"
    INDEX 01 01:19:36
  TRACK 48 AUDIO
    TITLE "8:cjc058_4620"
    INDEX 01 01:19:64
  TRACK 49 AUDIO
    TITLE "0:"
    INDEX 01 01:23:24
  TRACK 50 AUDIO
    TITLE "9:cjc058_4621"
    INDEX 01 01:23:65
  TRACK 51 AUDIO
    TITLE "0:"
    INDEX 01 01:29:15
  TRACK 52 AUDIO
    TITLE "7:cjc058_4622"
    INDEX 01 01:30:20
  TRACK 53 AUDIO
    TITLE "0:"
    INDEX 01 01:31:61
  TRACK 54 AUDIO
    TITLE "8:cjc058_4623"
    INDEX 01 01:32:13
  TRACK 55 AUDIO
    TITLE "0:"
    INDEX 01 01:33:56
  TRACK 56 AUDIO
    TITLE "9:cjc058_4624"
    INDEX 01 01:34:24
  TRACK 57 AUDIO
    TITLE "0:"
    INDEX 01 01:38:57
  TRACK 58 AUDIO
    TITLE "7:cjc058_4625"
    INDEX 01 01:39:63
  TRACK 59 AUDIO
    TITLE "0:"
    INDEX 01 01:41:63
  TRACK 60 AUDIO
    TITLE "8:cjc058_4626"
    INDEX 01 01:42:18
  TRACK 61 AUDIO
    TITLE "0:"
    INDEX 01 01:44:01
  TRACK 62 AUDIO
    TITLE "9:cjc058_4627"
    INDEX 01 01:44:46
  TRACK 63 AUDIO
    TITLE "0:"
    INDEX 01 01:49:47
  TRACK 64 AUDIO
    TITLE "7:cjc058_4628"
    INDEX 01 01:50:51
  TRACK 65 AUDIO
    TITLE "0:"
    INDEX 01 01:52:16
  TRACK 66 AUDIO
    TITLE "8:cjc058_4629"
    INDEX 01 01:52:44
  TRACK 67 AUDIO
    TITLE "0:"
    INDEX 01 01:55:18
  TRACK 68 AUDIO
    TITLE "9:cjc058_4630"
    INDEX 01 01:55:58
  TRACK 69 AUDIO
    TITLE "0:"
    INDEX 01 02:00:55
  TRACK 70 AUDIO
    TITLE "7:cjc058_4631"
    INDEX 01 02:01:56
  TRACK 71 AUDIO
    TITLE "0:"
    INDEX 01 02:03:14
  TRACK 72 AUDIO
    TITLE "8:cjc058_4632"
    INDEX 01 02:03:43
  TRACK 73 AUDIO
    TITLE "0:"
    INDEX 01 02:06:18
  TRACK 74 AUDIO
    TITLE "9:cjc058_4633"
    INDEX 01 02:06:59
  TRACK 75 AUDIO
    TITLE "0:"
    INDEX 01 02:10:32
  TRACK 76 AUDIO
    TITLE "7:cjc058_4634"
    INDEX 01 02:11:37
  TRACK 77 AUDIO
    TITLE "0:"
    INDEX 01 02:13:28
  TRACK 78 AUDIO
    TITLE "8:cjc058_4635"
    INDEX 01 02:13:54
  TRACK 79 AUDIO
    TITLE "0:"
    INDEX 01 02:15:39
  TRACK 80 AUDIO
    TITLE "9:cjc058_4636"
    INDEX 01 02:16:09
  TRACK 81 AUDIO
    TITLE "0:"
    INDEX 01 02:20:34
  TRACK 82 AUDIO
    TITLE "7:cjc058_4637"
    INDEX 01 02:21:35
  TRACK 83 AUDIO
    TITLE "0:"
    INDEX 01 02:23:27
  TRACK 84 AUDIO
    TITLE "8:cjc058_4638"
    INDEX 01 02:23:54
  TRACK 85 AUDIO
    TITLE "0:"
    INDEX 01 02:27:13
  TRACK 86 AUDIO
    TITLE "9:cjc058_4639"
    INDEX 01 02:27:56
  TRACK 87 AUDIO
    TITLE "0:"
    INDEX 01 02:32:45
  TRACK 88 AUDIO
    TITLE "7:cjc058_4640"
    INDEX 01 02:33:50
  TRACK 89 AUDIO
    TITLE "0:"
    INDEX 01 02:35:14
  TRACK 90 AUDIO
    TITLE "8:cjc058_4641"
    INDEX 01 02:35:45
  TRACK 91 AUDIO
    TITLE "0:"
    INDEX 01 02:39:10
  TRACK 92 AUDIO
    TITLE "9:cjc058_4642"
    INDEX 01 02:39:53
  TRACK 93 AUDIO
    TITLE "0:"
    INDEX 01 02:45:09
